<svg width="405" height="213" viewBox="0 0 405 213" xmlns="http://www.w3.org/2000/svg">
    <defs>
        <radialGradient cx="8.1299%" cy="145.8079%" fx="8.1299%" fy="145.8079%" r="264.1638%" gradientTransform="matrix(.20627 -.63836 .17106 .76974 -.1849 .3876)" id="a">
            <stop stop-color="#868686" offset="0%"/>
            <stop stop-color="#4F4F4F" stop-opacity="0" offset="100%"/>
        </radialGradient>
        <radialGradient cx="8.1299%" cy="145.8079%" fx="8.1299%" fy="145.8079%" r="231.0637%" gradientTransform="scale(.34494 1) rotate(-46.87 .1585 1.28)" id="b">
            <stop stop-color="#868686" offset="0%"/>
            <stop stop-color="#4F4F4F" stop-opacity="0" offset="100%"/>
        </radialGradient>
        <radialGradient cx="8.1299%" cy="145.8079%" fx="8.1299%" fy="145.8079%" r="217.3233%" gradientTransform="scale(.39748 1) rotate(-50.89 .143 1.3286)" id="c">
            <stop stop-color="#868686" offset="0%"/>
            <stop stop-color="#4F4F4F" stop-opacity="0" offset="100%"/>
        </radialGradient>
        <radialGradient cx="8.1299%" cy="145.8079%" fx="8.1299%" fy="145.8079%" r="206.6294%" gradientTransform="scale(.45631 1) rotate(-54.697 .1297 1.3644)" id="d">
            <stop stop-color="#868686" offset="0%"/>
            <stop stop-color="#4F4F4F" stop-opacity="0" offset="100%"/>
        </radialGradient>
        <radialGradient cx="8.1299%" cy="145.8079%" fx="8.1299%" fy="145.8079%" r="180.9174%" gradientTransform="scale(.83146 1) rotate(-68.763 .0895 1.446)" id="e">
            <stop stop-color="#868686" offset="0%"/>
            <stop stop-color="#4F4F4F" stop-opacity="0" offset="100%"/>
        </radialGradient>
        <radialGradient cx="8.1299%" cy="145.8079%" fx="8.1299%" fy="145.8079%" r="178.1837%" gradientTransform="matrix(.3058 -.94639 .89591 .32303 -1.2499 1.064)" id="f">
            <stop stop-color="#868686" offset="0%"/>
            <stop stop-color="#4F4F4F" stop-opacity="0" offset="100%"/>
        </radialGradient>
        <radialGradient cx="8.1299%" cy="145.8079%" fx="8.1299%" fy="145.8079%" r="200.9141%" gradientTransform="matrix(.2712 -.83932 .96252 .2365 -1.3442 1.1815)" id="g">
            <stop stop-color="#868686" offset="0%"/>
            <stop stop-color="#4F4F4F" stop-opacity="0" offset="100%"/>
        </radialGradient>
        <radialGradient cx="8.1299%" cy="145.8079%" fx="8.1299%" fy="145.8079%" r="217.7175%" gradientTransform="scale(1 .8) rotate(-75.506 .3167 1.6403)" id="h">
            <stop stop-color="#868686" offset="0%"/>
            <stop stop-color="#4F4F4F" stop-opacity="0" offset="100%"/>
        </radialGradient>
        <radialGradient cx="8.1299%" cy="145.8079%" fx="8.1299%" fy="145.8079%" r="247.3483%" gradientTransform="scale(1 .69893) rotate(-77.274 .4742 1.7721)" id="i">
            <stop stop-color="#868686" offset="0%"/>
            <stop stop-color="#4F4F4F" stop-opacity="0" offset="100%"/>
        </radialGradient>
        <radialGradient cx="8.1299%" cy="145.8079%" fx="8.1299%" fy="145.8079%" r="279.3902%" gradientTransform="scale(1 .61538) rotate(-78.754 .6365 1.9137)" id="j">
            <stop stop-color="#868686" offset="0%"/>
            <stop stop-color="#4F4F4F" stop-opacity="0" offset="100%"/>
        </radialGradient>
        <radialGradient cx="8.1299%" cy="145.8079%" fx="8.1299%" fy="145.8079%" r="293.4085%" gradientTransform="matrix(.18571 -.57473 .9826 .10862 -1.3665 1.3464)" id="k">
            <stop stop-color="#868686" offset="0%"/>
            <stop stop-color="#4F4F4F" stop-opacity="0" offset="100%"/>
        </radialGradient>
    </defs>
    <g fill="none" fill-rule="evenodd">
        <g opacity=".4">
            <path d="M11 169c.9233 0 306-70.621 306-70.621V87L11 169z" fill="url(#a)" transform="translate(138 5)"/>
            <path fill="url(#b)" d="M1 170l316-93.4336V61z" transform="translate(138 5)"/>
            <path fill="url(#c)" d="M0 169L317 54.3706V43z" transform="translate(138 5)"/>
            <path d="M317 23C316.3202 23 8 164 8 164L317 33.698V23z" fill="url(#d)" transform="translate(138 5)"/>
            <path d="M19 149L197 1h-15.5042S19.8945 147.1244 19.8945 147.4432" fill="url(#e)" transform="translate(138 5)"/>
            <path d="M17 142C17.6828 141.3592 166.4626-.5325 166.9845.0015c.4821.4984-10.4421 0-10.4421 0L17 142z" fill="url(#f)" transform="translate(138 5)"/>
            <path fill="url(#g)" d="M22 126L131 1h-7.8427z" transform="translate(138 5)"/>
            <path fill="url(#h)" d="M33 105L117 0h-5.7068z" transform="translate(138 5)"/>
            <path d="M32 94c.6773-.3179 65-93 65-93h-6.733L32 94z" fill="url(#i)" transform="translate(138 5)"/>
            <path d="M76.3408 1h6.6523c.623 0-41.3408 68.2102-47.1088 76.7277-.5225.7775-.8441 1.237-.8843 1.2723L76.3408 1z" fill="url(#j)" transform="translate(138 5)"/>
            <path d="M71 1S39.561 54.901 40.0047 53.9885C40.4685 53.0762 65.293 1 65.293 1H71z" fill="url(#k)" transform="translate(138 5)"/>
        </g>
        <path d="M57.5 53.6259c8.2844 0 15 6.7317 15 15.0353 0 8.3039-6.7156 15.0353-15 15.0353-8.284 0-15-6.7314-15-15.0353 0-8.3036 6.716-15.0353 15-15.0353" fill="#5C1A43"/>
        <path d="M57.5 50.6188c8.2844 0 15 6.7317 15 15.0353 0 8.304-6.7156 15.0353-15 15.0353-8.284 0-15-6.7314-15-15.0353 0-8.3036 6.716-15.0353 15-15.0353" fill="#506FBD"/>
        <path d="M57.5 52.1224c7.4558 0 13.5 6.1704 13.5 13.7825 0 7.6113-6.0442 13.7822-13.5 13.7822S44 73.5162 44 65.9049c0-7.612 6.0442-13.7825 13.5-13.7825" fill="#445FA1"/>
        <path d="M61.815 69.9843c-.4853 1.6255-1.9757 1.8334-1.9757 1.8334l-2.8076-4.497c.4506-2.0064 1.733-2.8712 2.8422-2.0413 1.0745.8306 2.4263 3.079 1.941 4.7049m-2.8421-11.0696c-3.2582.7265-4.402 5.0848-4.402 5.0848l-3.2581-5.3619-3.8127 4.532 10.5022 16.0163s2.3223-.9686 5.2685-3.771c2.9115-2.8016 4.7485-6.5033 3.1195-10.6886-1.629-4.186-4.1593-6.5384-7.4174-5.8116" fill="#FFF"/>
        <path d="M48 78.1835l2.75 4.7586s7.2188 2.5623 12.375.366l1.375-3.2943s-2.4063 1.098-7.2188 1.098c-4.8124 0-9.2812-2.9283-9.2812-2.9283" fill="#730027"/>
        <path d="M45.4123 73.673C42.386 67.522 43.0585 55.2204 55.5 51.12c0 0-8.4064.3417-11.4328 8.201-3.0263 7.8594 1.345 14.352 1.345 14.352" fill="#577ACF"/>
        <path d="M47.2623 56.229c2.7217-.8153.3729 3.7078-1.4913 5.5616-1.8642 1.8538-3.3556-4.0785 1.4913-5.5615M50.7403 53.35c1.7788-.946 0 1.3514-.9362 2.0272-.9362.6757-2.8086 0 .9362-2.0272" fill="#577ACF"/>
        <path d="M331.1669 105.2131c10.6069 12.396 1.1092 34.64-21.595 45.1422-12.3748 5.716-20.6246 6.6801-27.6958 2.1694-4.541-2.8925-10.1217-8.8839-10.7456-14.531-1.3518-11.914 7.9378-26.3415 21.3871-34.6055 14.4891-8.8839 30.1915-8.0575 38.6493 1.825" fill="#730027"/>
        <path d="M285.5 148.9966l8.0105 6.3335s17.0913 1.4113 31.1787-13.8029L325 130.306s-5.1101 8.1578-17.1604 13.975c-11.3252 5.473-22.3396 4.7157-22.3396 4.7157" fill="#A30000"/>
        <path d="M329.7216 103.468c8.9666 11.8951-1.0993 33.1487-22.3984 43.467-19.135 9.2556-34.697 3.0852-36.2086-10.2497-1.2367-11.0725 7.6608-24.8873 20.5777-32.9774 13.8788-8.7071 30.8498-9.804 38.0293-.24" fill="#730027"/>
        <path d="M328.8936 103.8662c8.587 11.5669-1.2465 32.1187-21.8827 42.1361-18.5934 9.0198-33.8628 3.1675-35.3862-9.7764-1.2812-10.8095 7.4442-24.3386 20.1168-32.2224 13.642-8.5026 30.1926-9.501 37.1521-.1373" fill="#EB7E50"/>
        <path d="M326.6382 105.718c6.9327 10.5299-1.9319 28.4957-19.591 37.4618-16.2453 8.2356-30.1453 3.5793-31.8698-7.9927-1.4831-9.939 6.4843-22.6232 18.2803-29.9552 12.5203-7.819 27.3856-8.3402 33.1805.4861" fill="#CF5C2C"/>
        <path d="M277.7022 146.3435c-6.6892-6.9655-7.4363-23.7846 10.7978-40.094 0 0-12.8352 8.4601-16.0949 20.3188-3.735 13.5912 5.297 19.7752 5.297 19.7752" fill="#FFEDB0"/>
        <path d="M276.5499 119.5963c3.7925-3.1888 1.2993 3.7257-1.1237 7.4515-2.4932 3.8265-5.5834-1.8125 1.1237-7.4515" fill="#FFEDB0"/>
        <path d="M280.769 113.7867c2.6923-3.0893.3323 1.6356-1.0637 3.4892-1.4293 1.8899-4.6534 3.1256 1.0636-3.4892" fill="#FFEDB0"/>
        <path d="M307.6377 137.881c-.655 1.6771-2.4132 2.773-3.93 2.3618-1.4824-.3762-2.103-1.9852-1.448-3.5944l11.2386-27.9677c.5516-1.335 2.1374-2.4305 3.5853-2.4305 1.4824-.0342 2.2753 1.0612 1.7582 2.4647l-11.2041 29.1662zM300.3437 119.7655c.4892 1.058-.2097 2.6282-1.5375 3.4815-1.3279.8533-2.7256.6826-3.145-.3755l-4.5774-12.1169c-.3145-.8191.2795-2.1162 1.3977-2.9012 1.1182-.785 2.3062-.8192 2.6906 0l5.1716 11.912z" fill="#FFF"/>
        <path d="M299.2033 123.2325c-1.302.876-2.6726.7008-3.0838-.3854-.4111-1.0862.2741-2.6278 1.5076-3.5038l9.4911-6.412c1.3363-.946 2.8782-.8759 3.4607.1402l.2398.07c.5825 1.0512-.3084 2.5929-1.679 3.574l-9.9364 6.517zM285.0929 132.2425c-.643 1.3947-2.0364 2.3013-3.0724 2.0224-1.036-.2441-1.3219-1.5346-.6788-2.8592l7.0737-14.575c.5716-1.186 1.8934-2.127 2.9294-2.0577 1.0718.0701 1.4648 1.1162.8932 2.3714l-7.1451 15.098z" fill="#FFF"/>
        <path d="M274.8163 91.9409c-.8604 2.351-2.7876 3.3537-4.8526 4.4256-5.5065 2.8351-14.1104 1.5558-22.3701-6.7767-7.0896-7.157-9.774-13.761-8.122-19.3967.998-3.3883 4.0265-7.157 7.1928-8.3671 6.2292-2.3511 13.8695 1.625 20.2708 8.056 6.4357 6.4655 10.187 15.697 7.8811 22.0589" fill="#730027"/>
        <path d="M275.4172 89.3665c-2.764 7.6503-14.4071 7.5128-24.9793-3.0667-10.5376-10.5454-10.745-22.2273-3.1786-25.0535 5.6316-2.1018 14.2345 1.4818 20.4188 7.6507 6.1499 6.0996 9.8121 14.749 7.7391 20.4695" fill="#27365C"/>
        <path d="M274.9132 89.2203c-2.7315 7.2184-13.8278 6.98-23.8316-3.0645-10.0038-10.0101-10.311-21.1105-3.1752-23.9026 5.3945-2.077 13.657 1.362 19.5978 7.2866 5.9408 5.925 9.4575 14.267 7.409 19.6805" fill="#EB7E50"/>
        <path d="M273.308 87.7723c-2.7187 5.9767-12.3205 5.324-20.7522-3.0914-8.3973-8.4154-9.0856-18.0674-3.2006-20.8153 4.646-2.1636 12.183.756 17.6205 6.2171 5.472 5.3928 8.4661 12.9495 6.3324 17.6896" fill="#CF5C2C"/>
        <path d="M242.3487 73.1718L240.5 79.773s6.7787 12.1193 15.8511 16.4528L262 93.4158s-5.2038-.948-11.2293-6.9399c-6.0597-5.958-8.422-13.3041-8.422-13.3041" fill="#C44010"/>
        <path d="M244 67.0223c2.4095-5.5877 11.1652-8.1693 22.5.6365 0 0-6.38-6.436-12.828-6.9665-8.2806-.7073-9.672 6.33-9.672 6.33" fill="#FFA763"/>
        <path d="M257.7583 63.0912c2.4054 1.5988-1.5918 1.1286-4.1387.2819-2.653-.9088-.3183-3.2287 4.1387-.2819" fill="#FFA763"/>
        <path d="M260.732 64.5313c2.1231 1.1934-.6948.4092-1.9686-.2049-1.2739-.6134-2.7407-2.4205 1.9686.205" fill="#FFA763"/>
        <path d="M243.5 65.153l-4.5 6.9518s0 3.7587.5255 2.9604c.5256-.7983 3.1862-4.823 3.1862-4.823l.7883-5.0893z" fill="#C94300"/>
        <path d="M244.7832 67.5732c.8772-3.5548 2.1593 16.6698 15.2168 23.641 0-.0346-17.9498-12.528-15.2168-23.641" fill="#FFD9A3"/>
        <path d="M247.34 69.7762c-2.3236-1.0365-1.499 5.3838 1.4991 6.7213 3.0358 1.3706 1.5366-5.3838-1.499-6.7213" fill="#FFD9A3"/>
        <path d="M270.9303 89.1761c.2576.9021-.2209 1.2838-1.0673.8674-.8465-.451-1.7297-1.5613-1.9505-2.4637l-3.3858-13.8786c-.1472-.5895.3312-.6939 1.0304-.2772.6993.4507 1.3985 1.249 1.5457 1.8386l3.8275 13.9135zM260.9299 76.823c.6013.8286.7683 1.6576.3006 1.8302-.4676.1727-1.3696-.3801-2.0376-1.2775l-7.75-10.7726c-.5678-.7938-.6012-1.4502-.0333-1.4502.5344 0 1.4364.587 2.0043 1.3811l7.516 10.289z" fill="#FFF"/>
        <path d="M261.2603 78.6524c-.4985.177-1.4598-.3893-2.172-1.3091-.6764-.8848-.7832-1.7346-.2492-1.8761l3.6317-.7783c.4273-.1065 1.2818.4243 1.8871 1.203l.1424.1061c.6053.7786.641 1.4157.2136 1.5927l-3.4536 1.0617zM253.9956 79.8027c.0733.8789-.7698 1.1488-1.8695.6086-1.0997-.5744-2.0161-1.757-2.0528-2.6358L250 69.1938c0-.6423.7331-.7099 1.6862-.169.9164.5403 1.6862 1.4864 1.7229 2.1283l.5865 8.6496z" fill="#FFF"/>
        <path d="M229.7664 2.6363c1.8344 1.1428 2.3536 2.9783 2.8727 4.9523 1.419 5.1947-1.246 12.3287-9.7948 17.8351-7.3375 4.7445-13.4636 5.8181-17.963 3.3939-2.6996-1.4545-5.33-4.7099-5.78-7.6535-.8652-5.7489 3.911-11.5323 10.5217-15.8266 6.6106-4.2943 15.1595-5.7834 20.1434-2.7012" fill="#730027"/>
        <path d="M227.77 1.4224c5.9483 3.7488 3.7262 13.6413-7.0424 20.7222-10.7686 7.0463-20.6141 5.1025-21.6397-1.8743-.7863-5.2066 3.7946-11.871 10.0849-15.967C215.4288.1729 223.36-1.389 227.77 1.4225" fill="#27365C"/>
        <path d="M227.4704 1.876c5.6512 3.5947 3.425 12.8867-6.9185 19.4996-10.3435 6.6129-19.8992 4.8834-20.961-1.6617-.7877-4.9173 3.6306-11.2589 9.7613-15.1927 6.1307-3.9 13.837-5.3243 18.1182-2.6452" fill="#EB7E50"/>
        <path d="M225.7084 3.4435c4.556 3.3643 2.261 11.3976-6.3715 16.959-8.6325 5.5615-16.8881 4.4287-18.1898-1.0642-.9592-4.3256 2.8775-10.1617 8.4611-13.7664C215.192 1.9673 222.1116.8 225.7084 3.4435" fill="#CF5C2C"/>
        <path d="M208 26.8277l5.3834 2.7417s11.6987-3.4864 17.1166-10.29l-1.4149-5.2465s-1.76 4.1973-8.0406 8.1575C214.7983 26.1846 208 26.8277 208 26.8277" fill="#C44010"/>
        <path d="M202.8879 25.0588c-4.1339-3.077-4.6464-11.224 4.6121-19.5459 0 0-6.4228 4.4407-8.0286 9.9653-2.084 7.098 3.4165 9.5806 3.4165 9.5806" fill="#FFA763"/>
        <path d="M201.5046 11.4701c1.8609-1.6006.7643 1.5006-.4652 3.3347-1.2627 1.9674-2.924-.3335.4652-3.3347" fill="#FFA763"/>
        <path d="M203.81 8.9606c1.466-1.2743.2566.5415-.513 1.338-.8063.8282-2.712 1.529.513-1.338" fill="#FFA763"/>
        <path d="M201.5 23.5553l5.2476 5.6642s3.2927.7357 2.6753.0736c-.6174-.662-3.6013-3.9723-3.6013-3.9723L201.5 23.5553z" fill="#C94300"/>
        <path d="M203.3064 23.695c-2.811-1.3425 14.432 1.1077 22.6936-8.6597 0 0-13.8493 12.9225-22.6936 8.6598" fill="#FFD9A3"/>
        <path d="M206.6807 22.1036c-1.2543 1.6331 4.373 2.1891 6.0341.0695 1.6611-2.1196-4.407-2.189-6.034-.0695" fill="#FFD9A3"/>
        <path d="M226.718 5.515c.7754-.0374 1.0113.4484.5394 1.0837-.5057.6353-1.5844 1.1959-2.3598 1.1959l-12.001.2242c-.5057 0-.5395-.411-.0338-.9343.472-.5231 1.2473-.9342 1.7867-.9716l12.0685-.598zM213.849 10.7922c.8405-.384 1.5759-.3491 1.646.0698.07.4538-.5954 1.152-1.4709 1.571l-10.7508 4.8875c-.8054.384-1.3657.2443-1.2606-.2444.105-.4888.8054-1.152 1.5408-1.536l10.2956-4.748z" fill="#FFF"/>
        <path d="M215.995 11.2593c.0681.4347-.5783 1.1035-1.4287 1.5048-.8505.4013-1.565.3344-1.565-.1003V9.6541c-.034-.3678.5784-.9363 1.2928-1.3042l.136-.1003c.7485-.3678 1.2928-.2675 1.3268.1003l.2382 2.9094zM215.8802 17.7456c.7347.1052.8349.8412.2004 1.6123-.668.8061-1.8034 1.3319-2.5381 1.1566l-7.1802-1.5772c-.5343-.1052-.4675-.736.1336-1.402.6011-.6309 1.5028-1.0865 2.0706-.9814l7.3137 1.1917z" fill="#FFF"/>
        <path fill="#972619" d="M103.9411 61.8124l.3789 10.079-5.3044 9.2877L97.5 93.2188h2.6522l5.3045-12.0397L113 71.8914l-.7233-14.7573z"/>
        <g transform="translate(0 50.1176)">
            <path d="M159.5599 2.3799c-1.3073 3.0692-6.1236 2.8626-8.3253 5.1734-8.0501 8.4498-14.6553 19.279-23.4278 26.936-13.004 11.347-26.7993 22.142-41.4546 31.1093-12.4535 7.6217-26.3175 16.244-40.9384 18.4517-7.4653 1.1381-15.7218 1.1036-17.8891-7.829-2.133-8.7607.7568-20.1073 6.158-27.04 2.1329-2.759 7.018-7.76 10.183-3.8972 1.5137 1.8628 1.5825 5.0702 1.6169 7.3462-1.5137-3.414 2.5457-9.2431.4128-12.5886-2.0297-3.1381-10.6302-1.552-13.4856-1.1381-4.0939.5522-9.323 2.5177-13.4512 1.8969.0344 1.242-.4129 2.4142-.8257 3.5872-2.1673 5.8632-5.4355 11.485-8.2565 17.0722C6.505 68.0818 1.9295 75.3245.2782 82.6707c-1.032 4.5526.9977 8.8289 2.9586 12.8645 5.2291 10.7258 16.0314 20.3827 26.2488 25.9358 4.9195 2.6902 10.2518 4.1729 15.7218 5.2769 2.2017.448 4.4378.6205 6.4676 1.5862-4.7131-.5174-6.0892 2.3107-7.7405 5.1733-1.4793 2.5867 1.2729 9.5884 3.5434 11.9336 1.8921 1.931 3.7498 2.3108 6.2268 3.1382 1.72.5522 3.0618 1.6213 4.5755 2.2766 4.4722 1.8621 10.6646.3794 15.3433.0345 2.5113-.1724 5.986-.8967 8.3597.5174 1.6857 1.0346 2.3393 3.104 3.9218 4.2766 4.7131 3.5176 13.4168 2.7592 18.8868 3.759 3.4402.6208 7.018 1.3796 9.9078 3.3458 2.0297-5.8632 8.3253-9.519 10.871-15.0028 1.8577-4.0007 3.0618-10.0712 4.0939-14.5548 1.3416-5.8973-1.6513-13.071 1.9265-18.072 4.5067-6.277 10.9742-11.347 16.341-16.7962 9.1853-9.347 18.4739-18.59 27.5216-28.0397 7.9125-8.2774 13.8985-12.6234 21.4325-21.2457 1.8577-2.1383 2.2362-7.7252.3785-10.105-.688-.8967 1.72-.9657.8256-1.3106-2.3737-.9312-4.5067-2.1728-6.7772-3.3113-5.4355-2.7591-10.0454-5.6907-13.8984-10.6568-2.0298-2.6215-14.0361-29.3503-19.0932-22.349.8945.2411.3096.7584 1.2385 1.0347" fill="#B82E1F"/>
        </g>
        <path d="M157.9912 144.84s1.5088 5.089 1.5088 9.8286c0 4.7404-10.5614 12.164-10.5614 12.164s-1.1316.3831-3.3947-.8015C143.2807 164.8457 138 155.8187 138 155.8187s9.0526-8.2598 11.3158-9.4103c2.2631-1.1502 8.6754-1.5684 8.6754-1.5684" fill="#360805"/>
        <path d="M136.7234 87.4315c-4.9224 15.5419-9.4661 34.9433-10.2234 43.1106 0 0 3.1324 22.2273 20.4123 16.3 1.136-.379 12.8739-5.4448 12.8739-5.4448l11.3593-11.2688 12.8738-6.6164L195 114.5867s-36.3153-30.6702-45.3683-33.3926c-9.1563-2.688-12.9083 6.2374-12.9083 6.2374" fill="#972619"/>
        <path d="M134.6562 94.2212C142.5657 103.9668 164 123.0434 164 123.0434l-18.0446 20.2515s-7.5328 2.35-11.6758-2.7301c-4.1431-5.0456-6.7796-10.9207-6.7796-10.9207l7.1562-35.423z" fill="#72120C"/>
        <path d="M142.6561 60.3126C136.645 77.0044 134 85.1778 134 86.3504c0 1.1725 3.0228 9.7253 12.8468 19.0368 0 0 9.0683 16.7262 16.213 19.0369 7.1791 2.345 24.9035-.7932 24.9035-.7932s16.591-9.7254 14.3239-17.485c-2.2671-7.7596-5.6677-19.4162-5.6677-19.4162l-30.9491-32.6592s-10.9575-6.6215-16.9687-2.7245c-6.0112 3.897-6.0456 8.9666-6.0456 8.9666" fill="#972619"/>
        <path d="M162.5578 89.4122c3.0499 2.7403 4.5748 24.6303 3.8123 27.7525-.7624 3.1221-15.2146-8.2217-19.4082-12.5236C142.7684 100.3398 134 85.4922 134 85.4922s3.0499 12.9046 3.8123 14.4656c.7625 1.5611 7.6247 6.2443 7.6247 6.2443l13.6897 17.5885s17.502-.3816 25.1267-.3816c7.6247 0 7.2434-20.7103 7.2434-20.7103l-21.3143-21.5081s-10.6746 3.5034-9.5309 3.5034c1.1437.035 1.9062 4.7182 1.9062 4.7182" fill="#360805"/>
        <path d="M153.5 67.6588c1.889 5.3974 7.178 25.7912 6.4224 23.8782C159.6476 90.8196 192 104.2447 192 104.2447l-4.2244-18.3442C184.4442 74.5934 153.5 67.6588 153.5 67.6588" fill="#520D09"/>
        <path d="M166.5 55.9523c-.1721-.242-.3786-.969-.654-1.9723-.9983-3.738-5.2667-14.0164-6.1616-14.0164-1.136 0-12.1167-1.1767-14.7328-.796-2.6161.381-7.9516 14.051-7.9516 14.051s2.6505 8.5823 4.5438 14.8117c1.8932 6.2294 10.602 6.645 10.602 6.645" fill="#972619"/>
        <path d="M139.6053 55.8637c-3.0443-1.1709-4.947-13.9813-4.947-13.9813s-1.9026-7.3694.7611-13.9813c2.6638-6.6118 2.2832-5.8197 3.8054-5.8197 1.522 0 14.8061 8.1614 16.7088 9.2978 1.9027 1.1709 4.5664 11.6396 4.5664 11.6396l-3.0443 9.2979-10.6549 5.8198-7.1955-2.2728z" fill="#972619"/>
        <path d="M136.5862 21.5506c-11.7586 6.5654-25.7586 18.8756-27.2759 21.2009C107.7931 45.0767 104 61.251 104 61.251s4.931 1.9149 10.6207-2.7014c1.5517-1.2652 2.7241-6.7364 3.793-6.9416 0 0 8.345-6.1551 14.7587-9.643 6.4138-3.4879 5.3104-3.4537 5.3104-3.4537L140 27.3295l-3.4138-5.779z" fill="#972619"/>
        <path d="M112.3567 56.6972c3.9094-2.8581 6.1433 5.8902 6.1433 9.0272 0 1.1854-.3285 3.5207-.6899 5.9606-.6242 3.9731-2.5296 8.5744-2.5296 8.5744l-4.3364 3.9382.7228-11.7807s-.7228-11.0142-1.0841-13.3495c-.3943-2.3702.6898-1.5685 1.774-2.3702" fill="#972619"/>
        <path d="M102.8022 54.8362c-1.5427 2.7549-.3857 4.7078-.3857 4.7078s5.3993.384 7.7133-.3836C112.4438 58.3586 119 54.069 119 54.069c-1.5426-1.1857-6.5563.3836-6.5563.3836l-9.6415.3836z" fill="#972619"/>
        <path d="M136.602 47.7785c-1.138 14.2782 4.5515 22.3931 6.0687 23.1464.8965.4794 6.6549-1.6435 13.62-1.5408 4.655.0685 8.7238-1.6093 13.3788-.274 11.6202 3.3556.6207-1.301.6207-1.301s-21.206-8.4916-23.861-16.6065c-2.6551-8.115 1.1378-11.9499 1.1378-11.9499l3.793-9.2448-15.1373-8.4573-27.2747 21.2289-2.2758 11.9498-3.0343 1.5408 8.3444.3766-8.3444 1.1642 6.448 1.1642-1.1379 12.3607-6.448 12.3607 8.7238-11.5732-.3793 9.6557-.3793 1.9175 5.6894-6.5741v-6.5741l1.5172-6.9508-3.4137-7.704s10.9995-10.409 20.0681-13.9015l-.3793 2.705 2.655 3.0815z" fill="#72120C"/>
        <path d="M182.2191 43.8504c16.3497-2.3731 25.4945 12.7943 22.0652 23.6282-3.2907 10.4211-7.6206 20.5327-7.6206 20.5327s-14.6524 15.7521-15.9687 18.2285c-1.9052 3.4737-4.1914 5.0214-4.1914 5.0214l-8.3827-3.0954-4.5723-20.9455s-2.8058-7.6353.762-24.4192c3.8103-17.7813 12.574-18.1597 17.9085-18.9507" fill="#972619"/>
        <path d="M169.5006 69.9247s-.379-17.7045 17.7788-19.6604c18.1579-1.9552 15.1258 16.1334 11.3702 24.7937 0 0-11.3702 4.3305-18.1578 3.5274-6.8221-.7683-10.9912-8.6607-10.9912-8.6607" fill="#72120C"/>
        <path d="M191.5 92.209l-15.0801 18.551-8.0934-2.591-4.5656-21.0382L163 79.7381s13.2816-1.5546 14.423-1.5546c1.1413 0 9.892 3.4891 9.892 3.4891L191.5 92.209z" fill="#FFBC77"/>
        <path fill="#FFAB77" d="M184.5 83.7167l-1.0807 5.4927-4.9193-.5214 2.1988-5.4927z"/>
        <path d="M187.5 93.265l-4.2547 1.546-8.8962-1.9241L167 86.7035l3.0943 8.8975s2.9537 4.4998 5.802 5.015c2.8481.5153 4.114-.7897 4.114-.7897L187.5 93.265z" fill="#75170D"/>
        <path d="M170.5 90.2118s1.641 3.7013 5.3675 5.3502c3.7607 1.649 6.6325-.2931 6.6325-.2931l-7.7607-1.9425-4.2393-3.1146z" fill="#FFF"/>
        <path d="M177.5 86.7035s.375 2.9525 2.25 4.2238c1.875 1.2709 5.25-2.0932 5.25-2.0932s-1.875.8597-3.75.4112c-1.875-.4486-3.75-2.5418-3.75-2.5418" fill="#82501E"/>
        <path d="M162.5 77.1812c0 .8096.2393 11.8974.2393 11.8974s4.9917 17.1777 4.7524 16.1217c-.2394-1.056-1.5044-21.6832-1.5044-21.6832L162.5 77.181z" fill="#972619"/>
        <path d="M159.5 69.4419s1.8077 1.5074 2.0123 3.4601c.7504 7.7083 4.093 10.9286 7.5037 13.1211 3.0014 1.9185 10.1299-3.0832 14.2228-2.3296 5.3548.9936 4.0928 9.0444 7.8788 8.4962 5.2525-.788 7.8788-6.1666 7.8788-6.1666l3.7518-6.5776-2.2511 1.9184 1.1255-3.46 3.0015-3.4602 1.8759-5.2759-3.7518 3.3574s-9.7547 5.6527-18.725 3.3573c-6.1734-1.5759-19.2366-13.121-20.7373-17.746l-1.262 4.3851 1.5008 3.8712-.5116 1.5417-2.7627-3.5972-.7504 5.1046z" fill="#EC5C24"/>
        <path d="M169.0478 71.9322s-.8672 7.101 4.7866 9.7596l7.6656-.8042-.1387-1.2947s-5.4804-5.6668-8.0472-7.1007c-2.5667-1.4345-4.2663-.56-4.2663-.56M186.8505 81.1163L185.5 82.7688l1.992 3.4336 5.1656-.81s1.992-2.4617 2.6672-3.2715c.6752-.81.6752-4.4385.6752-4.4385s-6.4823.9718-9.1495 3.4339" fill="#C97858"/>
        <path d="M170.218 72.1694c-.9863 3.0514 1.4967 8.4082 4.9661 7.3911 3.4694-1.0171 2.7551-2.814 2.7551-2.814l-7.7211-4.577zM186.9339 81.0275c-1.2384 1.529.2343 5.2123 3.6482 3.8918C194.0294 83.599 195 79.186 195 79.186l-8.0661 1.8416z" fill="#FFF"/>
        <path d="M173.322 73.673c-1.558 0-.779 2.9861 1.31 3.7777 2.089.8275 2.868-.8275 2.868-.8275l-4.178-2.9503zM189.3347 78.8795c-1.6775.8684-.7236 3.1329 1.9406 2.0006 2.6643-1.1322 1.4473-3.699 1.4473-3.699l-3.3879 1.6984z" fill="#72120C"/>
        <path d="M166 60.8585c.2416-1.0253 2.2777-8.2021 2.2777-8.2021s6.0738-9.5007 19.2223-8.4755c0 0-12.1477 2.5632-16.427 9.2274l-2.5192 9.74L166 60.8584z" fill="#D43523"/>
        <path d="M168.5 52.8086l2.679.8173s.9591-2.9494 5.821-5.6145c0 0-2.679-1.066-4.5973.2842-1.9513 1.3148-3.9027 4.513-3.9027 4.513" fill="#ED9389"/>
        <path d="M166.5 68.9821c.2388-.7955 2.8659.1384 2.8659.1384l9.6212 7.1594L181 80.1882l-3.9918-3.9083-8.5294-4.9113s-.7164 2.3173-1.2282 1.5564c-.5118-.83-.7506-3.9429-.7506-3.9429M185.5 81.6918l6.1237-3.6922L199 75.6776l-2.54 4.3013-1.2873-1.142-4.558 1.713z" fill="#72120C"/>
        <path d="M199.515 95.2235c1.925 0 16.135 9.7524 16.135 9.7524l3.85 17.153-30.765 4.6687-4.235-4.6686 7.315-17.5335 8.47-.3804-.77-8.9916z" fill="#972619"/>
        <path d="M199 93.72c.8125 1.1185 2.4375 8.52 2.4375 8.52l4.0625-3.7172L199 93.72z" fill="#72120C"/>
        <path d="M212.7342 119.0515s11.6827-.3755 18.055 10.3782c0 0 9.4216 25.3996 8.6679 23.8633-.7537-1.5362-38.4057-21.166-48.9235-26.9358-10.5179-5.7694 15.0402-12.6996 16.1708-13.0748 1.1306-.3758 6.0298 5.7691 6.0298 5.7691" fill="#972619"/>
        <path d="M191.9655 104.7459c-7.2069 10.512 3.4138 14.0394 12.5173 17.1515 0 0 11.7586-4.2881 10.6206-3.9074-1.1379.38-12.5172 5.4635-12.5172 5.4635s10.6207-2.732 16.6552-1.176c6.069 1.556 11.7586 7.0195 11.7586 7.0195l-16.6552 14.0395L181 123.4535l10.9655-18.7076z" fill="#48100A"/>
        <path d="M189 108.2541c-3.9828 6.1839-2.1724 17.04-2.1724 17.04l-8.3276-1.546 6.5172-15.0817L189 108.254z" fill="#360805"/>
        <path d="M184 123.4231l-15.8728 9.4224-8.3323 8.6546s-10.226 11.0277-21.1751 5.0951c-10.9491-5.9326-12.1198-16.0878-12.1198-16.0878l1.1362-3.9435s3.03 9.8412 10.9836 13.7497c7.9536 3.909 7.5748 2.373 7.5748 2.373l15.1153-22.4042 19.6602.3842L184 123.423z" fill="#360805"/>
        <path d="M160.7797 87.2047c-3.7005 3.5082-13.2883 17.6104-13.2883 17.6104S137.5 138.473 137.5 137.292c0-1.181 9.6214-27.4056 11.1016-30.1496C150.0818 104.3984 163 89.1498 163 89.1498l-2.2203-1.945z" fill="#520D09"/>
        <path d="M126.5 134.5377c5.3314 8.5313 13.2938 21.3282 13.2938 21.3282S161.5 145.0298 161.5 143.8605c0-1.17-1.1424-2.3395-1.1424-2.3395l-7.6163 3.8875s-18.625.3781-22.0524-6.9836c-3.4273-7.3616-2.6657-11.6273-2.6657-11.6273l-1.5232 7.7401z" fill="#520D09"/>
        <path d="M128.0693 125.6724c-13.7787 20.1504-18.767 27.8873-15.6972 45.7332 3.0696 17.8119 9.9764 24.7926 9.9764 24.7926l6.1394 9.2842 17.6157-5.0207s1.9186-8.5277-2.686-19.772c-2.2325-5.467-10.3601-20.5283-11.5112-29.4342-1.1512-8.906-3.0697-12.0007-3.4534-17.8116-.3837-5.8115-.7674-8.1498-.7674-8.1498l.3837.3783z" fill="#72120C"/>
        <path d="M139.75 154.4078c-1.125 3.4477.75 20.0016.75 20.0016s-8.625-10.786-10.125-21.913c-1.5-11.161-1.875-17.68-1.875-17.68l11.25 19.5914z" fill="#360805"/>
        <path d="M150.75 148.431s-11.25-1.5863-12.375-1.5863-2.625 4.3711-2.625 4.3711l-.75 4.3711 4.125 2.7849 8.625-3.56s3-3.9837 5.25-7.544" fill="#360805"/>
        <path d="M153.0646 92.7273c7.5181.2036 11.5847 10.4561 8.27 16.465-2.1872 3.938-5.7412 7.0613-10.6963 6.5178-11.653-1.3236-13.8401-13.7828-8.0649-19.3164 3.1781-3.0897 6.2879-3.7686 10.4912-3.6664" fill="#72120C"/>
        <path d="M146.0683 94.9101c3.1061-1.7624 8.0619-1.6239 10.9237.7947 3.6645 3.0751 4.8161 9.1216 3.455 11.8857-4.2228 8.5687-10.5397 7.0139-14.3787 5.459-3.839-1.5896-10.3303-12.3005 0-18.1394" fill="#EC5C24"/>
        <path d="M127.5 129.8047c1.8864 8.194 16.9432 15.178 18.8296 17.149 1.4405 1.4863 13.1704-1.9365 13.1704-4.6675v2.731s-6.0364 4.2872-10.1865 5.463c-4.15 1.1752-7.5455-.7955-7.5455-.7955s-10.1865-5.8426-11.6957-10.5101c-1.4405-4.7024-2.5723-9.3699-2.5723-9.3699" fill="#9C4911"/>
        <path d="M139 157.6378s5.326 1.5668 5.7065.383c.3805-1.1842 2.663-3.9345 7.9892-8.2524l-3.8044 6.2674 7.6087-6.6852-11.0326 12.2217 1.1413 4.3171L139 159.2046" fill="#210504"/>
        <path d="M126.9178 130.6587c-13.8238 18.6524-14.1983 24.4787-10.1125 39.6141 4.12 15.1358 17.1947 32.65 17.1947 32.65s-4.12 5.0334-4.4944 3.8957c-.3746-1.1723-12.3598-13.2044-15.6966-30.3053-3.3708-17.1006-4.4944-20.9962 1.1236-30.6846 5.6181-9.7222 13.0748-19.031 13.0748-19.031l-1.0896 3.8611z" fill="#972619"/>
        <path d="M143.85 198.5953c-2.6833-5.1584-9.2-9.1506-9.2-9.1506l-1.15 13.5318 11.5-1.2013-1.15-3.1799z" fill="#520D09"/>
        <path d="M136.5 169.3976c5.2456 12.8291 7.4937 26.0376 5.6202 27.9692-1.8734 1.9309 3.7469 3.1038 3.7469 3.1038l1.124-6.6218s.3747-4.6557-3.7468-13.2081c-4.1215-8.5186-6.7443-11.243-6.7443-11.243" fill="#360805"/>
        <path d="M153.1797 110.7196c-.1426.5008-.6416.6796-1.0694.4292-.4633-.2504-.7129-.8942-.5703-1.3945l2.7803-9.4784c.1426-.501.6416-.68 1.0694-.4292.4633.2504.7129.8942.5703 1.3946l-2.7803 9.4783zM150.9085 102.9842c.2159.5056.036 1.0452-.3957 1.2137-.4317.1686-.9713-.1351-1.1872-.6407l-2.7341-6.5726c-.2159-.5056-.036-1.0445.3957-1.213.4317-.1686.9713.1344 1.1872.64l2.7341 6.5726z" fill="#FFA07A"/>
        <path d="M150.2718 104.1977c-.4294.1693-.9661-.1355-1.1808-.6436-.2147-.508-.0358-1.05.3936-1.2194l3.1847-1.05c.4294-.1694.9662.1355 1.1809.6436l.0715.0677c.2147.508-.0358.9823-.4652 1.1516l-3.1847 1.05zM145.4843 105.2247c-.126.484-.567.657-.945.4148-.4094-.2418-.63-.865-.504-1.349l1.4804-5.5358c.126-.4847.567-.6577.945-.4152.4094.2422.63.865.504 1.3494l-1.4804 5.5358z" fill="#FFA07A"/>
        <path d="M210.5 142.9777c.7537-1.1843 14.8-13.4842 18.9454-15.4358 4.1453-1.9509 9.9009 8.258 13.2926 15.715 3.3916 7.4562 1.3703 7.4562 1.3703 7.4562l3.3917 2.753-4.0083 5.2266s-1.3019-.314-3.0148 0c-5.139.9753-15.314 4.808-26.5852-.8014L210.5 142.9777z" fill="#972619"/>
        <path d="M198.9333 123.2894c-2.9333.5227-3.4333 1.847-3.4333 6.0287 0 .9409 2.9333 6.0286 2.9333 6.0286s2.7 15.4376 5.8667 19.0966c3.1667 3.659 6.7 2.0909 6.7 2.0909s-4.2667-18.8527-5-19.898c-.7333-1.0455-5.8667-8.1196-5.8667-8.1196l-1.2-5.2272z" fill="#854D13"/>
        <path d="M215.7551 138.971c6.4999-1.842 15.018 14.3514 8.2788 20.363l-2.0184 1.0425-5.6446-1.4247L211 140.5347l4.7551-1.5637z" fill="#72120C"/>
        <path d="M224.5337 146.6722c11.6042-.5185 12.1102-1.8322 13.8306-1.8322 1.7204 0 5.195 6.7398 6.9153 7.535l1.7204.795-4.689 5.703s-.9782-1.3135-1.9902-1.5554c-.9782-.2765-7.6574 0-11.1319.2765-3.4745.2762-4.6889.2762-4.6889.2762s1.2481-2.8684.9783-6.4975c-.2699-3.6292-.9446-4.7006-.9446-4.7006" fill="#48100A"/>
        <path d="M208.5093 149.537c-.225 3.9508 3.665 13.2505 6.8155 9.44 3.1506-3.811.9323-9.9644.7073-14.4396-.225-4.4756-7.5228 4.9996-7.5228 4.9996" fill="#FFBC77"/>
        <path d="M159.4828 69.2048l-16.5518 1.9239-1.1379-3.4699L138 74.6328s2.2759-2.336 12.138-2.336c9.862 0 9.862 3.882 9.862 3.882l-.5172-6.974z" fill="#5E100A"/>
        <path d="M191.02 102.7412c3.42-8.8704 6.46-13.9054 7.98-9.2475l-1.52-5.7878s-.38 1.9176-3.04 3.0825l-2.66 1.1641-2.28 3.0825 1.52 7.7062z" fill="#72120C"/>
        <path d="M192.0217 104.8266c3.424-4.488 10.2718-2.8591 10.2718-2.8591L208 107.2518l-6.087-6.5153-11.413.8325 1.5217 3.2576z" fill="#72120C"/>
        <path d="M171.5 96.7963c.4886-1.0104.3583-.3708.847-.3708.4886 0 2.6385 3.3006 4.7559 3.3006 2.15 0 2.2802-1.1448 2.2802-1.1448s.3584-.3708.5864.2695c.228.6399-.847 1.8857-2.378 1.8857-1.531 0-3.3552-1.0104-4.2999-1.8857-.9447-.9097-1.7916-2.0545-1.7916-2.0545" fill="#FFF"/>
        <path d="M173.0581 95.2306c1.624-.1123 4.6138 1.1199 5.2782 2.6504.6643 1.53-.812 1.6797-2.2885.8581-1.5133-.8581-4.872-3.3595-2.9897-3.5085" fill="#991E11"/>
        <path d="M206.3294 127.8c-4.0138 1.2968-15.5747 9.7261-16.3294 14.0944l2.6758 3.4468s8.302-9.5214 14.9229-12.661c3.7736-1.7747-1.2693-4.8802-1.2693-4.8802" fill="#FFBC77"/>
        <path d="M209.8248 132.3106s-16.5514 10.3037-18.3248 14.4113l2.0515 5.1346s13.0047-11.844 18.0814-13.6237c5.0767-1.8146-1.8081-5.9222-1.8081-5.9222" fill="#FFBC77"/>
        <path d="M212.9483 137.3337c-.862-.2398-6.8276 3.3621-12.138 7.9932-5.3103 4.6311-6.3103 6.6894-6.3103 6.6894l1.2759 2.8472s16.4138-9.7767 20.7241-11.0803c0 0-1.7586-5.935-3.5517-6.4495" fill="#FFBC77"/>
        <path d="M215.0186 143.8461c-.7737.1022-13.5559 6.4015-15.776 7.9337-2.22 1.5323 1.2447 4.086 1.2447 4.086s10.5957-4.3584 13.5558-5.1075c2.9601-.7831 3.1956-7.185.9755-6.9122" fill="#FFBC77"/>
        <path d="M95.8474 190.9482c-.2132-.7561-1.8474-3.4714-1.8474-3.4714s.8171.2062 1.8474-2.0967c1.0302-2.3028 1.6342-4.2276 1.6342-4.2276l-2.6645 2.0966.8171-2.509s4.0855-5.5681 7.9934-8.4553c3.908-2.8872 3.8724-2.8872 3.8724-2.8872s-3.6947 4.2277-5.9329 7.6648l-2.2382 3.4714 1.2435.3781s0-.7561-1.6342 2.3029c-1.6343 3.059-2.0606 5.568-2.0606 5.568l1.0303 2.0967h-2.0605v.0687z" fill="#00ACF2"/>
        <path d="M96.451 190.7211c-.4202-1.2169-1.1555-2.399-1.8207-3.5118l-.6303.209c.6303.1042 1.1555-.313 1.5056-.765 1.3306-1.495 1.9258-3.9638 2.521-5.8409.07-.2089-.5952.0348-.6302.0696-.8754.6953-1.7507 1.4254-2.626 2.1208.21-.0348.42-.0696.6302-.0696.28-.8691.4552-1.8774.9104-2.6774.9453-1.6685 2.521-3.233 3.8165-4.6584 2.311-2.538 5.007-4.5198 7.7032-6.571h-.5602c-3.0113 3.5462-5.6023 7.3706-8.0884 11.2993-.035.0348.035.0695.07.0695.4202.1391.8054.2434 1.2256.3821.14.0351.6302-.0344.6302-.2082 0-.2782-.4902-.1043-.6302-.0348-.8754.3477-1.4706 2.1208-1.8208 2.8162-.6653 1.3559-1.9258 3.6505-1.8557 5.215.035.7298.6652 1.599.9804 2.2943.175-.0692.3851-.1387.5602-.243H96.311c-.1401 0-.7704.2781-.4202.2781h2.0308c.07 0 .6303-.0695.5602-.2433-.28-.591-.8053-1.2864-.9103-1.947-.14-.6262.175-1.3907.3851-2.0168.4902-1.5646 1.1555-3.094 1.9608-4.5542.2802-.487.6303-.9387.8754-1.4255.175-.2784-.3501 0-.3501.0348.21-.0695.4201-.1394.6302-.2086-.5952-.1738-1.0854-.1046-1.0154-.5215.035-.2785.4902-.7649.6303-.9738.5252-.834 1.0504-1.7033 1.6106-2.5377 1.7157-2.6423 3.6415-5.1111 5.6724-7.5097.175-.1738-.4902-.0695-.5603 0-2.7311 2.086-5.4622 4.1025-7.7732 6.6405-1.2955 1.4255-2.661 2.9205-3.7115 4.5198-.5602.8692-.7703 1.9122-1.0504 2.8853-.07.209.5952-.0344.6302-.0692.8754-.6953 1.7507-1.4254 2.6261-2.1208-.21.0348-.4202.0696-.6303.0696-.245.7648-.4902 1.495-.7703 2.225-.175.4868-1.3655 4.1026-2.0308 3.9983-.07 0-.7003.0692-.6303.2086.6653 1.1125 1.4006 2.2598 1.8208 3.5111-.07.209.5952 0 .5602-.1387" fill="#FFF"/>
        <path d="M100.5 190.9482s.2077-5.0254 3.9812-10.8484c3.7735-5.8226 5.5737-6.7584 5.5737-6.7584l-.4154-1.9405h1.5924V169.46s5.193-4.8521 8.1702-6.7583c2.9772-1.9412 2.5964-1.1784 2.5964-1.1784l-2.0079 2.322 4.7775-2.9116c1.5924-.97 3.3926-1.5596 3.3926-1.5596l1.5925.2083-1.004 1.178s3.9813-.3808 4.5698-.5891c.5885-.2076 2.181-.2076 2.181-.2076s-4.9852.7624-7.3739 2.1138c-2.3887 1.352-1.004-.5889-1.004-.5889l-.7962-.2083s-1.5925 1.1788-4.5697 3.085c-2.9773 1.9405-3.6004.5892-3.6004.5892s-5.366 5.0254-5.366 6.2035c0 1.1787-.2077 1.7329-.2077 1.7329l-1.004-.2076.4155 1.3513.2077.9708s-8.7587 10.2589-8.7587 15.492l-2.9426.4508z" fill="#00ACF2"/>
        <path d="M100.7217 190.6813c.1719-3.5542 1.7528-7.2116 3.6087-10.214 1.2372-2.001 2.6463-4.0025 4.2272-5.7627.4468-.4827 1.031-1.1387 1.5466-1.4144.0343-.0349.1374-.0694.1374-.1384-.1374-.6553-.275-1.2768-.4124-1.932-.1718.069-.3093.1725-.4811.2415h1.5809c.1375 0 .4811-.069.4811-.2416 0-1.2425-.2062-1.6911.6874-2.519 1.4778-1.3802 3.0244-2.6918 4.571-3.9683.4123-.3109 4.5709-3.5197 4.777-3.244.1032.1384-1.7527 2.0705-1.959 2.3124-.1717.2066.4812.0341.55 0 1.8902-1.1388 3.7804-2.4504 5.7394-3.4507.6186-.311 1.306-.725 1.9934-.8286.6186-.1035-.3094 0 .103 0 .2063 0 .4125.0349.5843.069.1031 0 .653 0 .6874.0694-.0688-.1035-.1719.0342-.2062.1032-.1031.3109-.5843.656-.7905.932-.1031.1032.0687.1377.1718.1377 1.1685-.1035 2.337-.2412 3.5056-.3796.7217-.1031 1.409-.2757 2.1308-.345-.0344 0 1.5122-.138 1.2372-.3106-.0687-.0687-.378.1039-.4811.069-1.3748-.069-3.4025.725-4.674 1.1387-.7562.2416-1.4779.5867-2.1996.8976-1.0998.4482-1.2373.3792-.653-.4486.0344-.0349.0344-.1039-.0344-.1384-.9966-.2415-1.1685-.1725-1.9933.3796-1.1341.794-6.0831 4.6584-6.8736 3.1405-.103-.1726-.5499 0-.6186.1031-1.2029 1.1388-2.4058 2.3465-3.5399 3.5891-.5499.6211-1.2372 1.2764-1.6153 2.0356-.3437.7591-.1718 1.5528-.4124 2.3464.2062-.0686.4124-.1376.5842-.207-.3436-.069-.653-.138-.9966-.2067-.1031-.0348-.653.0342-.6186.2412.1718.5525.378 1.1042.4811 1.6908.1031.656.1375.4486-.1718.9662-.8936 1.3803-2.0621 2.623-3.0244 3.9342-2.2683 3.1398-5.2583 7.108-5.3614 11.1454.1375-.069.275-.138.378-.2416-.9966.1384-1.9933.2416-2.9556.38-.275.0341-.5842.345-.103.276.9966-.1384 1.9932-.2419 2.9555-.38.1032 0 .3781-.0686.3781-.2411.1031-4.3134 3.6086-8.6958 6.0487-12.0088.7218-.9662 2.0621-2.105 2.5089-3.2091.275-.6902-.2406-1.7944-.4468-2.519-.2062.0693-.4124.1383-.6186.2419.3437.069.653.1376.9967.2067.1374.0348.5498 0 .5842-.2067.2062-.6902.0688-1.4838.3437-2.1398.3437-.8969 1.2716-1.6909 1.8902-2.4155a74.8176 74.8176 0 0 1 3.2993-3.3123c-.2062.0341-.4124.0686-.6186.1035.5155 1.0694 2.3714.3102 3.0931-.0349 1.5122-.7246 2.9213-1.8288 4.296-2.7605.378-.276.7561-.5863 1.1342-.7937.1718-.1035.2062-.069-.0344-.0341-.5843.069.378.2067.378.1725 0 .1377-.5498.6901-.3093 1.0352.2406.345 1.0998-.0694 1.3404-.1725 2.4745-1.1046 4.9146-1.898 7.5953-2.3123.1718-.0342.6186-.2757.2062-.2757-1.4435 0-2.8182.345-4.2273.5176-.3436.0341-2.062.4827-2.3713.2415.1374.1035.6873-.6215 1.031-1.001.0687-.069 0-.138-.1031-.138-1.8559-.2413-2.8182.069-4.571 1.0006-1.9245 1.001-3.746 2.243-5.602 3.3817h.55c.275-.3102 2.2339-2.174 1.9933-2.519-.4468-.6901-3.2306 1.3803-3.4711 1.5528-2.2683 1.5528-4.3304 3.3817-6.3581 5.2454-.4124.345-1.2372.8627-1.4778 1.3454-.2406.4831-.0344 1.4493-.0344 2.0018.1719-.069.3093-.1725.4812-.2416h-1.581c-.103 0-.5155.069-.4811.2416.0687.3102.4468 1.9665.5155 1.794-.0344.1039-.4468.3106-.5499.38-1.4778 1.2418-2.6463 2.8637-3.746 4.4165-2.6464 3.7267-5.1209 8.1785-5.3271 12.871.0687.069.7217 0 .7217-.2415" fill="#FFF"/>
        <path d="M145 170.8223c3.3777-4.0449 6.9277-8.505 6.9277-8.505l-2.585 4.633.9995 1.7285 1.5855-2.6965-.9995 6.1879s-.4136 8.1243-.2068 7.537c.2068-.5878 8.134-17.5627 10.3053-21.227 2.1714-3.6645.586 4.2524.586 4.6326 0 .3803 4.1703-.2074 7.548-8.2971 3.3777-8.1243 2.7917-10.0257 2.7917-10.0257.4136-.9683 5.9626-6.5686 5.9626-6.5686l2.1025-1.5557.4825-.3457s-1.7922 1.1754-4.7563 5.9809c-2.964 4.805-4.1704 7.329-2.1714 6.5685 1.999-.7606 1.5855 0 1.5855 0s-.4136 2.9037-4.1704 9.4722c-3.7568 6.5686-6.5486 9.8529-8.3408 11.4086-1.7922 1.5557-3.5845 3.8723-3.5845 3.8723s2.7918-10.9937.9995-10.233c-1.7922.7605-7.7203 14.0705-9.5126 16.9745-1.7922 2.904-4.3082 8.0897-4.4806 7.5362-.2067-.5874 3.8602-15.4185 3.2743-16.9742-.5859-1.5557-3.1709 1.1754-3.1709 1.1754l-.9995 1.936-.1723-3.2151z" fill="#00ACF2"/>
        <path d="M145.5505 170.879a411.4726 411.4726 0 0 0 6.9003-8.4494c-.206-.034-.3777-.0687-.5836-.1027-.721 1.3048-1.4419 2.576-2.1628 3.8807-.618 1.1334-.0687 1.4429.5836 2.6107.103.206.5493.0343.618-.1034.5149-.8927 1.0641-1.7857 1.579-2.679h-.6522c-.3433 2.1638-.8582 4.3623-.9955 6.5604-.103 1.4769-.1373 2.9878-.1717 4.4993 0 .4809-.3776 2.4042.0687 2.7477.1373.1027.4806 0 .5836-.1377 2.0598-3.8464 3.7076-7.968 5.5957-11.8834 1.2015-2.4732 2.403-4.9461 3.6733-7.3843.206-.3778 1.0299-2.4043 1.4418-2.5073.1717-.0347-.0686 2.4042-.103 2.8164-.103.7552-.8582 2.5072.103 2.713 1.2702.2747 3.0553-1.4426 3.7763-2.2325 2.7807-2.8504 4.2568-6.8692 5.527-10.5782.618-1.855.8583-3.6407 1.2016-5.5297.2746-1.5456 2.7463-3.4693 3.8449-4.6024 1.4418-1.4768 2.815-2.645 4.4972-3.881.3776-.2748-.206-.4122-.412-.2405-2.1628 1.4426-3.7076 4.1902-5.0121 6.3197-.3776.6182-4.4285 6.354-2.3344 6.594.6866.1034 1.7164-.8926 1.8538-.103.1373.756-.7896 2.4733-1.03 3.0911-1.888 4.568-4.5314 8.93-7.4151 12.8797-2.2314 3.0572-5.1838 5.3584-7.4839 8.3121h.6523c.4463-1.7863.8582-3.572 1.1672-5.358.1373-.8586 1.0986-4.2245.103-4.9114-1.8195-1.2708-6.042 8.5521-6.557 9.5481-1.1672 2.3356-2.2657 4.7054-3.5702 6.9722-.7553 1.3052-1.5105 2.61-2.2658 3.9498-.412.7556-.8239 1.5109-1.2358 2.2325-.206.3435-.8583 1.1334-.8926 1.5109-.1373 1.065.3776-.1717.309 0 .0686-.103.0343-.2748.0686-.3775.1373-.3434.1717-.756.2403-1.1334.2747-1.2368.5836-2.5072.8583-3.744.6522-2.6787 1.3045-5.3923 1.7851-8.1053.1716-.9964 1.0985-3.9158-.6866-3.9158-1.9568 0-3.0897 2.3355-3.8106 3.744.206-.0346.4463-.0346.6523-.0686a1369.0016 1369.0016 0 0 0-.206-3.0572c0-.24-.6866-.103-.6523.1718.0687 1.0303.1374 2.0607.206 3.057 0 .2745.5836.0688.6523-.069.3433-.6522.618-1.4078 1.0299-1.9577.5492-.7209 2.403-2.026 2.506-.5492.1373 1.889-.6179 4.1215-1.0299 5.9415-.5492 2.4733-1.1328 4.9115-1.7164 7.3504-.103.4465-.9956 2.8164-.4806 3.1942.8239.5838 5.5613-8.6209 6.248-9.9603 2.3-4.465 4.1881-9.4112 7.1748-13.498.721-.9963.9956-1.0303.9956.3088 0 1.1338-.206 2.3012-.412 3.4346-.309 1.786-.7209 3.6063-1.1672 5.3583-.0686.3088.5493.103.6523 0 1.991-2.542 4.5658-4.5337 6.557-7.0756 2.918-3.7434 5.424-7.8996 7.4838-12.1581.6179-1.2708 1.2015-2.6106 1.6135-3.9498.103-.3434.412-1.099.3776-1.3738-.103-.5499-.3433-.5499-.9612-.4812-.618.069-1.4419.79-1.5792-.034-.103-.687.6523-1.7173.9612-2.3012 1.3045-2.5072 2.815-4.9801 4.5659-7.1786.6522-.824 1.3388-1.7513 2.197-2.3355-.1373-.0687-.2746-.1718-.4119-.2405-1.2359.9274-2.4717 1.786-3.536 2.8854-.8582.8587-1.6821 1.7513-2.506 2.61-.7553.7903-1.8195 1.6833-2.3344 2.6793-.3776.7213-.206 1.6486-.3776 2.4726-.721 3.9157-2.3345 8.0372-4.3942 11.4028-.824 1.3398-1.8195 2.645-3.0897 3.6063-.3433.2748-1.7508 1.1681-1.9224.9277-.206-.2748.3432-2.2325.3776-2.6103.0686-.6526.412-1.9577.103-2.576-.6523-1.3054-1.7852.79-2.0941 1.3392-1.2016 2.1298-2.2658 4.3623-3.33 6.5604-2.2658 4.602-4.1882 9.4451-6.5913 13.9445.206-.0344.3776-.103.5836-.1378-.2403-.1717.103-2.9534.103-3.3999.0343-1.2708.0343-2.576.1717-3.8467.206-2.0951.6522-4.1906.9955-6.2513.0343-.3088-.5493-.137-.6523 0-.5149.8933-1.0642 1.7863-1.5791 2.679.206-.034.412-.0684.618-.103-.2404-.4122-.927-1.2022-.9613-1.6827 0 0 .515-.8586.6523-1.099.6179-1.1334 1.2701-2.2672 1.888-3.4006.1717-.3088-.4462-.2404-.5835-.1027-2.3001 2.8163-4.6002 5.6327-6.9003 8.4487-.3433.2751.2747.3095.4463.1034" fill="#FFF"/>
        <path d="M140.561 172.3728c-.8491.704 7.439-10.4928 7.439-10.4928s-4.6875 8.2468-7.439 10.4928" fill="#00ACF2"/>
        <path d="M140.6388 172.9372c.2666.281.4332.3162.4999.1054.0333-.0702.0667-.1054.1-.1756.1333-.0703.2333-.3864.3-.4918.2999-.4918.6332-.9835.9331-1.4402.8-1.1943 1.5998-2.3886 2.433-3.618 1.1665-1.7212 2.333-3.4073 3.4995-5.0934-.2-.0351-.4-.1054-.5666-.1405-1.9997 3.6883-4.1327 8.044-7.199 10.8541-.3332.3162.1667.562.4333.3162 3.1663-2.8804 5.366-7.3064 7.399-11.1.1666-.3162-.4333-.3513-.5666-.1406-1.3998 2.0023-2.7663 4.0045-4.1327 6.0418-.3333.4918-3.6662 4.6719-3.233 5.234.0667.1053.2334.1404.3667.1053l.2-.1054c.3-.3161-.2-.562-.4666-.3513" fill="#FFF"/>
        <path d="M151 199.2263l3.2-5.392-2.4-.2074 4.5913-8.1225s8.4174-8.1225 10.6087-11.959c2.1913-3.8712-1.8087-.7605-2.4-.3803-.5913.3802 2.4-2.696 2.4-2.696s5.3913-5.392 6.9913-7.5349c1.6-2.1084 5.0087-6.5671 5.0087-6.5671s-4.8 7.915-7.374 11.1987c-2.6086 3.2835-2.8173 4.2513-2.8173 4.2513l1.3913.2074s-6.8174 8.1225-8.626 10.9913c-1.8088 2.8688-6.1914 7.1547-4.5914 9.4705 1.6 2.3158.2087 1.1752.2087 1.1752l-3.2 5.8067-2.9913-.242z" fill="#00ACF2"/>
        <path d="M151.1251 199.0861c1.067-1.8042 2.0997-3.6089 3.1667-5.4138.0689-.1389-.0688-.208-.172-.208-.3787-.035-2.1342.0691-2.3063-.1735.2754.3815.7573-.9026.9294-1.2497 1.0326-1.8736 2.0997-3.7133 3.1323-5.587.5507-.9717.9637-1.4232 1.7898-2.2558 1.8243-1.8393 3.6142-3.7137 5.3352-5.6568 1.549-1.7703 3.3388-3.644 4.337-5.8304.5507-1.2146.2754-1.8396-.9982-1.284-.4819.2078-1.6178.694-1.8587 1.1452-.2754.5206.1033.1735.4475-.0697.4474-.3124.826-.902 1.2047-1.3185.895-.9717 1.8243-1.8743 2.7192-2.8114 3.7174-3.8522 6.8497-8.0167 10.0852-12.32-.2065 0-.413-.0347-.6195-.0347-1.6178 2.707-3.3044 5.3791-5.0254 8.0167-1.2048 1.7703-2.5472 3.4357-3.7519 5.2056-.4819.6941-1.1359 1.4927-1.3424 2.3603-.0344.069.0689.1385.1377.1385.2754.035 1.1015 0 1.308.1735-.1721-.1735-.0689-.1735-.3098.1391-.5851.7285-1.2047 1.4576-1.7899 2.186-1.8243 2.2559-3.6485 4.5117-5.3352 6.8716-1.6866 2.3251-3.5453 4.685-5.0254 7.1838-.5507.9023-1.2047 2.117-.9981 3.2275.1032.5205.5851 1.6658.9981 1.9438.3098.2079.5508.1735.1722-.1736-.1722-.1391-.5164-.0694-.6196.1042-.8261 1.5266-1.6866 3.0536-2.5127 4.6153-.1721.3127-.413.6247-.5163.9717-.1377.3821.3786.1392 0 .035-.7917-.2429-1.8587-.1044-2.6848-.1734-.2754-.0351-.6884.3814-.241.416.9982.0695 1.9964.1389 2.9602.2086.1377 0 .3786-.0697.4475-.1735 1.067-1.9438 2.0996-3.8872 3.1667-5.8303-.2066.0343-.4131.069-.6196.104.241.1736.5507.4509.895.3471.654-.2432.0688-.9026-.1378-1.2844-1.0326-1.8046-.3786-3.1928.7229-4.8586.9982-1.5617 2.2029-2.9499 3.201-4.4769 2.6849-4.0257 5.7483-7.8085 8.8462-11.5565.0688-.1042-.0345-.208-.1033-.208-.3442-.035-1.308-.2776-1.2391-.0697-.0689-.2429.4818-.9714.5851-1.1449 1.1703-1.9438 2.6848-3.679 3.9584-5.5527 1.9275-2.846 3.7518-5.7613 5.5073-8.7111.172-.2777-.482-.2083-.6196-.0347-2.6504 3.5051-5.163 7.045-8.1577 10.2378-1.2047 1.2844-2.4438 2.5684-3.6486 3.8175-.826.8676-1.962 1.7699-2.547 2.811-.0345.0694-.0345.1045 0 .1388v.0347c.0688.1045.3441.0694.4474 0 .4475-.2426 2.0652-1.7352 2.4783-1.4923.7228.4165-1.7555 3.5746-2.1341 4.0952-2.2373 2.8808-4.7845 5.518-7.3316 8.0864-2.6848 2.7413-4.1993 6.351-6.0924 9.6822-.0689.1392.0688.2082.172.2082.5852.0348 1.7211-.104 2.2374.1736-.0688-.0347 0-.2426-.241.1044-.2409.312-.413.6941-.585 1.0061-.7918 1.3535-1.5834 2.7417-2.4095 4.0951-.2065.3124.4474.278.5851.0694" fill="#FFF"/>
        <path d="M175.3227 170.0739c2.346-.994.8301 2.5035-1.4438 4.0119-2.2739 1.509-1.6964-2.6746 1.4438-4.012" fill="#00ACF2"/>
        <path d="M175.656 169.9563c1.2108-.5212.346 1.2858.0692 1.7376-.3113.5212-.6572.9733-1.1069 1.39-.173.1737-.8994.9733-1.2453.8687-.588-.1737-.0692-1.4591.0692-1.7722.4497-.9383 1.2453-1.7376 2.2139-2.224.415-.2086.0345-.5213-.2768-.3476-1.3145.6259-2.456 1.807-2.8019 3.2666-.2421.8687.0692 1.8073 1.1415 1.4598 1.3837-.4517 2.6636-2.1892 3.1133-3.5101.1383-.3823.3113-.938-.0346-1.251-.3805-.3475-1.0032-.104-1.3837.0698-.4843.1387-.1038.4514.2422.3124" fill="#FFF"/>
        <path d="M100.333 172.7339c3.0562-1.8454 2.7815-.3907-.206 2.1647-2.9532 2.5903-2.7815-.3903.206-2.1647" fill="#00ACF2"/>
        <path d="M100.3057 171.9079c.2987-.1871.5973-.3742.896-.5239.0996-.0752.3319-.187.4646-.187.2323 0 .166.224.0996.4112-.1328.412-.4315.7484-.697 1.048-.4645.5988-1.0287 1.1227-1.5597 1.6462-.2655.2249-.531.4864-.7964.6735-.1328.0749-.2655.225-.3983.15-.2323-.0751-.199-.4864-.1327-.6735.2987-1.1226 1.2942-1.9832 2.1239-2.5445.2655-.1871-.365-.0749-.4978 0-.8628.5987-1.8584 1.459-2.2235 2.5816-.0663.2249-.1659.599.0332.7862.1991.2245.5642.1122.7965.0744 1.1615-.3364 2.157-1.4968 2.9867-2.4323.2323-.2615 1.3938-1.459 1.0288-1.908-.1991-.2245-.6637-.0374-.8629 0-.5973.1871-1.1946.5613-1.7256.898-.2655.1872.365.0746.4646 0" fill="#FFF"/>
        <path d="M93.0107 168.3634c.0336.641 3.0963-8.543 11.039-12.3162 7.9428-3.7728 1.5482 0 .9761-.2132-.5721-.214-9.491 3.9863-9.491 3.9863s-2.726 2.1718-2.5241 8.543" fill="#00ACF2"/>
        <path d="M93.0013 168.1953c0 .103.0666.1373.1665.1716.1333.0686.2998 0 .3998-.0687.433-.3431.6662-1.201.9327-1.6813.8329-1.5442 1.7656-3.054 2.865-4.4266 1.599-2.0241 3.5311-3.8431 5.763-5.1124 1.066-.618 2.1654-1.0984 3.298-1.5788.3665-.1716 1.0327-.3085 1.3325-.549.2-.1373.4331-.3432.0334-.3432-.6996.0343-1.6324.9608-2.3986 1.1667-.7328.1716-1.4324.3432-2.132.618-1.5324.6173-3.0648 1.2693-4.5972 1.9212-.9327.4118-2.0653.755-2.9315 1.304-2.4318 1.6127-2.765 5.902-2.6983 8.4756 0 .3431.6662.2402.6662-.034-.0333-2.4367.2-6.3828 2.332-8.0298 1.1659-.8919 3.5644-1.6128 5.0635-2.2305 1.599-.6862 3.198-1.1666 4.797-1.6814.3665-.1029 2.765-1.0294 2.5984-1.6124-.0333-.1033-.1332-.1376-.1999-.1376-.2998-.034-.6329.1376-.8994.2402-1.0993.4121-2.1986.9269-3.2647 1.4416-2.1986 1.0294-4.1307 2.5045-5.8297 4.2546-1.3991 1.4412-2.5984 3.0882-3.631 4.8386-.3665.6173-.733 1.2693-1.0661 1.9212-.1.1716-.2665.4118-.2998.6177 0 .0686-.1333.2062-.1333.2745.0333.3431.3332-.652.4664.1373-.0333-.3772-.6662-.2056-.633.1029" fill="#FFF"/>
        <path d="M101.8566 158.6295c3.0755-1.41-.8626 3.3906-2.3628 4.1292-1.5003.7721-1.7253-2.2492 2.3628-4.1292" fill="#00ACF2"/>
        <path d="M102.819 158.7513c1.1203-.5364.1446 1.0726-.0722 1.4302-.5782.8938-1.301 1.7877-2.132 2.5028-.253.2149-.5421.5725-.795.1788-.1807-.286-.1085-.7509 0-1.0365.4336-1.4302 1.8068-2.4317 3.0715-3.111.2891-.1431-.3975-.0716-.542 0-1.301.6793-3.6136 2.2525-3.3246 4.0402.1807 1.0727 1.4094.5363 1.9514.1073 1.1564-.8939 2.2405-2.2168 2.8548-3.504.6143-1.323-.5782-1.0727-1.4455-.6436-.3975.1788.253.143.4337.0358" fill="#FFF"/>
        <path d="M106.4563 149.1684c-4.3073 1.9231-12.3114 9.2034-12.3114 9.2034s2.5437-6.5248 5.8674-9.5811c3.3238-3.0563 0-3.0563 0-3.0563l-1.3566-1.5454-4.1038 6.147 2.9168-6.3187s-4.6804 6.5248-4.1038 5.7693c.5765-.7555 2.7471-5.3572 2.7471-5.3572s1.187-13.2212-1.5601-12.4657c-2.7472.7555-11.701 6.6965-11.3279 6.147.407-.5838.9836-4.0179.9836-4.0179L76 140.0338s2.1367-23.0083 15.8047-34.7186c0 0-5.4604 11.882-4.6803 14.3888 0 0 12.3114-23.7981 21.8756-30.4946l-3.7986 5.1511s-18.077 28.9837-19.0606 33.0015c0 0-.78-1.923-.78-2.8846 0-.9615-1.3567-.206-1.3567-.206s-3.3237 11.3324-2.5437 11.1264c.78-.206 4.477-3.2624 4.477-3.2624s-2.7473 4.224-.7802 3.6401c1.9672-.5838 9.3608-5.5632 13.0915-7.864 3.7307-2.3008.2035 11.1264 1.187 13.4272.9836 2.3009 0 3.4685 1.3567 3.4685 1.3566 0 5.0874-1.5454 5.0874-1.5454s-5.257 6.147-8.4111 10.7487c-3.1203 4.533 8.9876-4.842 8.9876-4.842" fill="#00ACF2"/>
        <path d="M106.415 149.3076c-4.6559 2.144-8.764 5.9137-12.564 9.3368h.582a35.5428 35.5428 0 0 1 1.8829-4.0114c1.3009-2.4206 2.8414-4.253 4.6558-6.2588.7532-.8645 1.4036-2.0748-.0342-2.5247-.1712-.0689-.7874-.2075-.6162-.1038-.4793-.2766-.9586-1.0717-1.3352-1.487-.1369-.1383-.5135 0-.6162.1387-1.3693 2.0749-2.773 4.1148-4.1423 6.1897.2054 0 .4108-.0343.6504-.0343a527.4183 527.4183 0 0 0 2.9442-6.3632c.1027-.2072-.5478-.0692-.6505.0349-1.3693 1.902-3.0468 3.8039-4.1765 5.8438-.1712.2767.5135.1387.6162 0 .7874-.8645 1.2666-2.2477 1.746-3.2502.3765-.7608.9242-1.5911 1.0954-2.4207.5135-2.3519.3081-5.1872.2054-7.5736-.0684-1.2446.0343-5.0142-1.8829-4.9797-.9927.035-2.1225.7957-2.9783 1.2453-1.6775.8988-3.3207 1.867-4.964 2.8356-1.2324.7259-2.4648 1.4521-3.6973 2.1786.6163-.3458.1712.173.582-.5187.2054-.3458.2397-.8994.3424-1.314a24.37 24.37 0 0 0 .4108-2.179c.0342-.2766-.5135-.0688-.582 0-2.773 2.006-5.5117 3.9768-8.2847 5.9829h.582c.4108-4.2884 1.4379-8.5765 2.7045-12.6913 2.5333-8.2994 6.573-16.426 13.2144-22.1668h-.582c-.9928 2.1098-1.8829 4.288-2.7387 6.4667-.6162 1.591-1.1982 3.1815-1.6433 4.8413-.2738 1.0032-.6162 2.1786-.3765 3.216.0684.208.582.035.6504-.1037 2.2595-4.3226 4.7243-8.5415 7.2919-12.6563 4.0054-6.3975 8.49-13.5903 14.7206-18.017-.2054 0-.3765-.0346-.582-.0346-7.2233 9.8213-13.4197 20.4723-19.4107 31.1229-1.2666 2.2824-3.0126 4.7722-3.663 7.3658.2054-.0343.445-.1038.6504-.138-.2396-.5879-.4793-1.2103-.6162-1.8332-.1027-.4495 0-1.2791-.445-1.5561-.4108-.2417-1.4379.0692-1.746.415-.3423.3807-.4108 1.349-.5477 1.8328-.4108 1.4524-.8216 2.9048-1.1982 4.3918-.1712.6224-1.609 4.807-.7532 5.1529.5478.2071 1.6775-.8303 2.054-1.107 1.0271-.7258 1.9857-1.5215 2.9442-2.3169-.2054 0-.3766-.0342-.582-.0342-.5477.8645-2.8072 4.4955-.2738 3.769 1.4378-.4147 2.8072-1.4179 4.0738-2.1786 2.0198-1.2104 4.0054-2.4899 5.9568-3.769.8558-.5537 1.7117-1.1066 2.6018-1.6603.8216-.5187 1.335-.7262 1.6432.3113.4108 1.3832.137 3.078.0342 4.4613-.2738 2.9044-1.0955 6.0859-.2054 8.9219.4793 1.5561-.1027 3.2502 1.9856 2.9394 1.609-.2425 3.2522-.934 4.7585-1.5562-.1369-.035-.2738-.0695-.445-.1387-2.2252 2.5936-4.382 5.2564-6.436 7.9886-.3424.4496-3.7658 4.2535-1.9514 4.2535.6505 0 1.5063-.5883 2.0199-.8995 1.027-.6224 2.0198-1.2791 3.0126-1.9708a109.201 109.201 0 0 0 4.5189-3.32c.2738-.2072-.3766-.2072-.5136-.1038-1.027.7953-2.0882 1.5561-3.1153 2.3515a76.6306 76.6306 0 0 1-2.9783 2.0748c-.6505.4496-1.5748 1.2453-2.3964 1.3833-1.027.2078-.1027-.7954.2739-1.314 1.0954-1.5905 2.2936-3.1466 3.4918-4.6685 1.5406-1.9362 3.1153-3.8731 4.7243-5.7401.1712-.2079-.3765-.1387-.445-.1387-1.3009.5187-3.5603 1.7986-4.9297 1.314-.8901-.3108-.582-1.2445-.7874-2.144-.1712-.6916-.445-1.2449-.5135-1.9365-.2396-2.9736.5477-6.0517.719-9.0253.0684-1.1415.4107-4.2538-1.5064-3.9426-1.164.2075-2.3964 1.349-3.3892 1.9715-1.8486 1.1754-3.7315 2.3857-5.6144 3.5615-.6846.4153-4.1765 3.078-4.964 2.5593-.7188-.4499.9244-2.9051 1.301-3.458.1712-.277-.4793-.1042-.582-.035-.5477.4496-1.1297.8995-1.6775 1.349-.4792.3458-.9243.7259-1.4036 1.0717-.2396.1729-.4792.3116-.6846.4845-.1028.0691-.2397.138-.3424.2071-.2054.0692-.1712.1037.1027.0692-.4108-1.1758.582-3.4581.8559-4.599.4792-1.8677.9928-3.7347 1.5405-5.5679.137-.5187.1712-1.487.9928-.5875.2054.2417.2396 1.2792.3423 1.625.137.415.2739.8645.445 1.2795.0685.2078.6163.0349.6505-.138.582-2.2827 2.054-4.4613 3.1838-6.4667 1.9171-3.458 3.937-6.847 5.9567-10.2363 3.218-5.3946 6.436-10.858 9.8595-16.149 1.2324-1.9369 2.7045-3.735 4.0396-5.5679.2054-.2766-.4793-.1037-.582-.0342-6.1621 4.3918-10.6126 11.446-14.5837 17.7743-2.6703 4.2189-5.2036 8.5415-7.5315 13.0028.2054-.035.4108-.0695.6504-.1037-.2739-1.0724.1712-2.3865.445-3.424.4793-1.6595 1.0613-3.2851 1.6775-4.8755.8216-2.0749 1.6775-4.1155 2.6018-6.1208.1027-.2424-.5135-.0695-.582 0-6.5387 5.7058-10.5783 13.59-13.1459 21.6823-1.3693 4.3226-2.499 8.887-2.9099 13.4174-.0342.2763.5136.0692.582 0 2.773-2.0057 5.5117-3.9768 8.2847-5.9825h-.582c-.2396 1.3483-.445 2.8007-.9928 4.0806 0 .0342 0 .0691.0342.0691.5136.5187 3.1496-1.5219 3.5262-1.729 2.4306-1.4524 5.0324-3.4239 7.7711-4.2884 2.0883-.657 1.9171 4.3572 1.9513 5.6024.0343 2.04.2054 4.4607-.2396 6.4667-.137.6916-.5477 1.3483-.8558 2.0057-.582 1.1754-1.0613 2.6627-1.9514 3.6652h.6162c1.1297-2.0748 2.8072-3.9419 4.1766-5.8438-.2054 0-.4108.0342-.6505.0342a524.9479 524.9479 0 0 0-2.9441 6.3633c-.1027.2071.5477.0688.6504-.035 1.3694-2.0748 2.773-4.1147 4.1424-6.1896-.2054.0342-.4108.0688-.6162.138.5135.5536.9928 1.314 1.6432 1.591.6847.311 1.3009.138 1.1297 1.1755-.2054 1.1065-1.7117 2.0057-2.4306 2.8356-2.1225 2.4902-3.6973 5.5675-4.8955 8.611-.1027.2417.5135.0688.582 0 3.6973-3.3543 7.737-7.089 12.29-9.1989.3766-.1729-.0342-.38-.308-.242" fill="#FFF"/>
        <path d="M92.8716 73.5301c4.1216-2.535 3.3302.9727-1.9124 4.8618-5.2426 3.8894-2.8356-1.9447 1.9124-4.8618" fill="#00ACF2"/>
        <path d="M92.8716 73.5301c4.1216-2.535 3.3302.9727-1.9124 4.8618-5.2426 3.8894-2.8356-1.9447 1.9124-4.8618z" stroke="#FFF" stroke-width=".5"/>
        <path d="M54.1052 90.574c2.9476-1.6093 3.345 2.449.2318 6.1577-3.1131 3.7081-4.3054-3.9536-.2318-6.1577" fill="#00ACF2"/>
        <path d="M54.1052 90.574c2.9476-1.6093 3.345 2.449.2318 6.1577-3.1131 3.7081-4.3054-3.9536-.2318-6.1577z" stroke="#FFF" stroke-width=".5"/>
        <path d="M57.1763 150.8541c-.2392-9.4412 3.964-59.7487 40.3237-83.6965 0 0-6.1853.7233-16.3345 11.8533-10.1493 11.1297-5.6727 3.1356-4.4425 1.206 1.2302-1.93-3.964 3.618-3.964 3.618s-9.3975 8.4765-13.3615 19.3646c0 0 3.2122-7.9937 6.937-8.235 3.7249-.2411-1.4694 10.8882-6.4244 19.1238-4.955 8.235-7.928 5.306-7.1763 3.3768.7518-1.9296 1.7428-5.5476 1.4694-4.824-.2392.7233-4.2032 9.6821-4.2032 9.6821s0 .2412 2.4604-.482c2.4605-.724 3.964-.4828 2.7338 2.894-1.2302 3.3772-2.973 2.6532-3.2122 2.412-.2392-.2408-.991.724-.991 1.93s-.4784 3.3768.4784 10.1649c.991 6.788 5.7069 11.612 5.7069 11.612" fill="#00ACF2"/>
        <path d="M57.1763 150.8541c-.2392-9.4412 3.964-59.7487 40.3237-83.6965 0 0-6.1853.7233-16.3345 11.8533-10.1493 11.1297-5.6727 3.1356-4.4425 1.206 1.2302-1.93-3.964 3.618-3.964 3.618s-9.3975 8.4765-13.3615 19.3646c0 0 3.2122-7.9937 6.937-8.235 3.7249-.2411-1.4694 10.8882-6.4244 19.1238-4.955 8.235-7.928 5.306-7.1763 3.3768.7518-1.9296 1.7428-5.5476 1.4694-4.824-.2392.7233-4.2032 9.6821-4.2032 9.6821s0 .2412 2.4604-.482c2.4605-.724 3.964-.4828 2.7338 2.894-1.2302 3.3772-2.973 2.6532-3.2122 2.412-.2392-.2408-.991.724-.991 1.93s-.4784 3.3768.4784 10.1649c.991 6.788 5.7069 11.612 5.7069 11.612z" stroke="#FFF" stroke-width=".5"/>
    </g>
</svg>
