<svg width="190" height="59" viewBox="0 0 190 59" xmlns="http://www.w3.org/2000/svg" fill="#FFF">
    <path d="M176.5016 26.3692c-7.328 0-13.2686-5.903-13.2686-13.1846C163.233 5.9029 169.1735 0 176.5016 0c7.328 0 13.2685 5.903 13.2685 13.1846s-5.9405 13.1846-13.2685 13.1846zm-.0768-14.7478l-4.379-4.2446c-.3816-.3699-1.0003-.3699-1.382 0-.3816.37-.3816.9697 0 1.3396l5.074 4.9183c.3817.3699 1.0005.3699 1.3821 0a.9686.9686 0 0 0 .0714-.077l2.0892-2.0252c.3816-.3699.3816-.9696 0-1.3395-.3816-.37-1.0004-.37-1.382 0l-1.4737 1.4284zm-5.07-.691c-.5397 0-.9772.4828-.9772 1.0784v6.1826c0 .5956.4375 1.0784.9772 1.0784s.9773-.4828.9773-1.0784v-6.1826c0-.5956-.4376-1.0784-.9773-1.0784zm10.2935-3.831c-.5397 0-.9772.4626-.9772 1.0333v10.1037c0 .5707.4375 1.0334.9772 1.0334s.9772-.4627.9772-1.0334V8.1327c0-.5707-.4375-1.0333-.9772-1.0333z"/>
    <path d="M50.673 20.5784c1.0737-.3167 2.282-.2398 3.2698.3101 1.4155.7566 2.313 2.3996 2.1167 4.0007-.1125 1.3153-.9106 2.5403-2.0616 3.187-1.2568.739-2.8994.706-4.1474-.0352-1.2016-.6797-1.9755-2.0059-2.0263-3.3761-.1168-1.8013 1.1378-3.5455 2.8487-4.0865zM4.816 22.4476c2.26.0357 4.5223-.0223 6.7846.0313 3.1662 8.3811 6.4048 16.7377 9.6005 25.11 3.2521-8.3611 6.45-16.7445 9.632-25.1324 2.2578.0045 4.5178-.0067 6.7778.009 1.5594 11.8136 3.207 23.6137 4.7709 35.4273-2.199-.0022-4.3957.0179-6.5924-.0111-1.0125-7.5862-1.991-15.1813-3.06-22.7607a8066.922 8066.922 0 0 1-8.3282 22.7718c-2.0159 0-4.0296.0134-6.0455-.0067-2.7617-7.613-5.5596-15.2125-8.3371-22.8187-.9922 7.6085-2.034 15.2125-3.0375 22.821-2.3278.02-4.6533-.009-6.9811.0156v-.1586c.5786-3.3274.9243-6.6906 1.4148-10.0315C2.538 39.2903 3.7177 30.8734 4.816 22.4476zM100.02 26.0833c.633.0654 1.3963-.194 1.944.1219.0248 2.1123 0 4.2246.009 6.337 2.6918.0338 5.3857.0067 8.0796.0135.0113 2.2432.009 4.4864 0 6.7296-2.7096.009-5.4193-.0045-8.1312.0045.0045 3.085-.0022 6.1722.0023 9.2572.009 1.0133.1594 2.1484.9429 2.8728.9675.8937 2.429.923 3.6368.6026 1.026-.2528 1.7982-1.0133 2.5435-1.7174.4018 1.898.889 3.7733 1.3088 5.6667-1.3425 1.7941-3.5246 2.8164-5.7291 2.9405-1.8566.097-3.7917-.1534-5.4238-1.099-1.4368-.8056-2.4919-2.2048-2.997-3.7688-.5725-1.6158-.5994-3.3558-.5837-5.0528 0-3.234.0023-6.4679.0023-9.7018-1.4525-.0068-2.905 0-4.3575-.0023.0808-.8214-.2829-1.8076.33-2.4779 2.8084-3.5747 5.6281-7.1426 8.423-10.7263zM73.9284 31.8346c3.3546-.52 6.9961.4371 9.4544 2.8357 2.1983 2.1138 3.1753 5.2163 3.1888 8.2133.0179 5.0056 0 10.009.009 15.0145-2.0953.009-4.1928.0067-6.288 0-.0135-4.5595.0067-9.119-.009-13.6785-.0045-1.6319-.4997-3.3467-1.7457-4.4653-2.4179-2.17-6.5613-1.6431-8.6028.7935-.475.594-.8672 1.3159-.8403 2.0982.0045 5.084-.0023 10.168.0022 15.252-2.0952.009-4.1905.0068-6.2857 0-.0067-8.5024-.009-17.005 0-25.5097 2.028-.0045 4.056.0022 6.0818-.0045.009.825.0045 1.652.0067 2.477.9345-1.883 3.041-2.7841 5.0286-3.0262zM118.7824 34.9246c3.0461-2.8169 7.5296-3.8085 11.5326-2.9015 2.9393.6574 5.5248 2.5694 7.1692 5.0765 1.9803 2.9572 2.6122 6.6542 2.2228 10.1574-6.2814.0847-12.565.0156-18.8464.0357.3716 1.7828 1.5776 3.3717 3.2842 4.0558 3.0239 1.228 6.5707.956 9.4833-.4613.9412-.43 1.6688-1.1677 2.4387-1.834.5963 1.5622 1.2638 3.0998 1.8312 4.6731-.247.7243-.8878 1.2747-1.4218 1.8163-2.8904 2.5315-6.9823 3.2268-10.6982 2.721-3.6002-.4703-7.078-2.3868-9.0917-5.4599-3.54-5.4464-2.7702-13.4667 2.096-17.8791zm6.3014 3.4318c-1.858.4792-3.5646 1.8608-3.954 3.813 4.0986 0 8.1972.0223 12.2936-.0112-.2203-1.17-.8455-2.2619-1.838-2.9393-1.8779-1.297-4.3477-1.413-6.5016-.8625zM154.8184 32.4718c1.9746-1.0871 4.6285-1.0692 6.46.3027.3476.2869.8111.6276.7066 1.1387-.1818 1.8515-.5953 3.6762-.7976 5.5255-1.4928-.9863-3.415-1.3158-5.1465-.8182-2.1586.5626-3.8628 2.7033-3.6674 4.936.0114 4.7812 0 9.5603.0069 14.3416-2.1246.009-4.249.0067-6.3736 0-.009-8.5023-.009-17.0046 0-25.5092 2.0564-.0045 4.1104.0022 6.1668-.0045.0182 1.0693-.0068 2.1385.0114 3.2055.5612-1.2508 1.377-2.459 2.6334-3.118zM48.8504 32.7248c2.047.0248 4.096.009 6.143.009.0088 8.5617.0088 17.1211 0 25.6806-2.0425 0-4.0873.0112-6.132-.0068 0-8.5594.0218-17.1211-.011-25.6828z"/>
</svg>
